<?xml version="1.0" encoding="UTF-8" standalone="no"?>
<!-- Created with Inkscape (http://www.inkscape.org/) -->

<svg
   xmlns:dc="http://purl.org/dc/elements/1.1/"
   xmlns:cc="http://creativecommons.org/ns#"
   xmlns:rdf="http://www.w3.org/1999/02/22-rdf-syntax-ns#"
   xmlns:svg="http://www.w3.org/2000/svg"
   xmlns="http://www.w3.org/2000/svg"
   xmlns:sodipodi="http://sodipodi.sourceforge.net/DTD/sodipodi-0.dtd"
   xmlns:inkscape="http://www.inkscape.org/namespaces/inkscape"
   width="128"
   height="128"
   viewBox="0 0 128 128"
   id="svg3421"
   version="1.1"
   inkscape:version="0.91 r13725"
   sodipodi:docname="SiouXtrackMIniIcon.svg">
  <defs
     id="defs3423" />
  <sodipodi:namedview
     id="base"
     pagecolor="#ffffff"
     bordercolor="#666666"
     borderopacity="1.0"
     inkscape:pageopacity="0.0"
     inkscape:pageshadow="2"
     inkscape:zoom="0.77167689"
     inkscape:cx="176.08255"
     inkscape:cy="291.42857"
     inkscape:document-units="px"
     inkscape:current-layer="layer1"
     showgrid="false"
     inkscape:showpageshadow="false"
     showborder="true"
     units="px"
     inkscape:window-width="1322"
     inkscape:window-height="1058"
     inkscape:window-x="356"
     inkscape:window-y="91"
     inkscape:window-maximized="0" />
  <metadata
     id="metadata3426">
    <rdf:RDF>
      <cc:Work
         rdf:about="">
        <dc:format>image/svg+xml</dc:format>
        <dc:type
           rdf:resource="http://purl.org/dc/dcmitype/StillImage" />
        <dc:title></dc:title>
      </cc:Work>
    </rdf:RDF>
  </metadata>
  <g
     inkscape:label="Calque 1"
     inkscape:groupmode="layer"
     id="layer1"
     transform="translate(0,-924.3622)">
    <g
       id="g3572"
       transform="matrix(2.4542655,0,0,2.3231725,-117.60251,-643.07199)">
      <path
         style="fill:#fef9fa"
         d="m 16.468672,833.06 -20.4036085,0.625 -1.2622219,-0.78486 -1.262222,-0.78485 29.0351434,-50.26289 c 15.969329,-27.64458 29.302992,-51.28713 29.630362,-52.539 l 0.595216,-2.27611 -10.11607,-17.45136 -10.11607,-17.45136 0,-1.84355 0,-1.84355 2.1875,-1.87711 c 1.203125,-1.03241 5.5625,-3.8783 9.6875,-6.3242 l 7.5,-4.44708 4.533256,-0.77225 4.533255,-0.77224 3.165419,1.20349 3.165419,1.20349 3.551326,6.32294 c 1.953229,3.47762 3.938094,6.32352 4.41081,6.32422 0.472716,7e-4 2.42312,-2.87164 4.334229,-6.38298 l 3.474743,-6.38425 2.765434,-1.05142 2.765435,-1.05141 4.753315,0.77136 4.753315,0.77135 9.709523,6.16442 9.70952,6.16441 0,2.15781 0,2.15781 -10,17.38697 c -5.5,9.56284 -9.999999,17.83202 -9.999999,18.37596 0,0.54395 12.907099,23.33312 28.682429,50.64261 15.77533,27.3095 29.05947,50.65157 29.52031,51.87127 l 0.83786,2.21765 -21.49584,-0.34265 -21.49583,-0.34264 -18.940063,-32.8125 c -10.417035,-18.04688 -19.23117,-32.79122 -19.586965,-32.76521 -0.355796,0.026 -9.100583,14.79164 -19.432861,32.8125 L 36.872281,832.435 16.468672,833.06 Z"
         id="path3634"
         inkscape:connector-curvature="0" />
      <path
         style="fill:#fef3f4"
         d="m 16.018549,833.31412 -20.0215843,0.37088 -0.5516887,-1.44281 -0.5516874,-1.4428 28.0258144,-48.5572 C 38.333602,755.53574 51.606309,732.42937 52.414307,730.8947 l 1.469088,-2.79029 -10.674228,-18.62533 -10.674226,-18.62533 0.672768,-1.75321 0.672767,-1.7532 9.001287,-5.58117 9.001289,-5.58117 4.405574,-0.8364 4.405575,-0.83641 2.800761,0.65647 2.800763,0.65647 4.050269,7.36743 c 2.227647,4.05209 4.371503,7.36744 4.764123,7.36744 0.39262,0 2.653406,-3.34586 5.02397,-7.43524 l 4.310114,-7.43523 2.373357,-0.62134 2.373359,-0.62135 3.876641,0.77313 3.876643,0.77313 9.141759,5.63873 9.14177,5.63872 1.11356,2.08071 1.11356,2.08071 -10.49823,18.59158 -10.49823,18.59158 2.285516,3.78493 c 1.257034,2.08172 14.228094,24.50352 28.824574,49.82622 14.59647,25.32271 26.82103,47.11958 27.16567,48.43749 l 0.62663,2.39623 -20.45829,-0.0171 -20.45829,-0.0171 -19.360706,-33.62233 -19.360708,-33.62233 -0.785341,0.48537 c -0.431938,0.26695 -9.360535,15.37844 -19.841327,33.58109 l -19.055984,33.09573 -20.021585,0.37087 z"
         id="path3632"
         inkscape:connector-curvature="0" />
      <path
         style="fill:#feeef0"
         d="m 15.884958,833.29271 -19.8092407,0.39229 -0.6046513,-0.98219 -0.6046504,-0.9822 29.4763924,-51.14248 c 16.212017,-28.12837 29.476393,-51.68946 29.476393,-52.35799 0,-0.66853 -4.498049,-8.99368 -9.995665,-18.50032 l -9.995665,-17.28482 -0.0043,-2.1957 -0.0043,-2.19569 9.0625,-5.81465 9.0625,-5.81465 4.375,-0.99425 4.375,-0.99425 2.564208,0.64029 2.564207,0.64028 4.065026,7.39428 c 2.235764,4.06686 4.486963,7.65506 5.002663,7.97378 l 0.937636,0.57949 4.081262,-7.42382 4.081263,-7.42381 2.388717,-1.2784 2.388719,-1.27841 3.46315,0.81726 3.463149,0.81726 10.312499,6.25688 10.3125,6.25688 0,2.35176 0,2.35177 -9.37571,16.12895 c -5.15663,8.87093 -9.67621,16.91208 -10.0435,17.86922 l -0.6678,1.74026 29.41851,50.92733 c 16.18018,28.01004 29.4185,51.47353 29.4185,52.1411 l 0,1.21376 -20.24526,-0.34346 L 114.57866,832.435 95.518351,799.33314 C 85.03518,781.12712 75.998626,766.07814 75.437122,765.89097 l -1.020916,-0.3403 -19.361003,33.67488 -19.361002,33.67487 -19.809243,0.39229 z"
         id="path3630"
         inkscape:connector-curvature="0" />
      <path
         style="fill:#feeaec"
         d="M 15.844444,833.06 -3.9255977,833.685 -4.490259,832.76645 -5.0549198,831.8479 23.902993,781.71871 C 39.829846,754.14765 53.128755,730.56527 53.456125,729.3134 l 0.595216,-2.27611 -10.208328,-17.61051 -10.208328,-17.61052 0.404757,-2.06586 0.404759,-2.06586 9.375,-5.85723 9.375,-5.85723 4.164827,-0.81925 4.164828,-0.81926 2.36265,1.26445 2.362649,1.26445 4.097522,7.45993 c 2.253639,4.10297 4.413974,7.46661 4.800745,7.47477 0.386771,0.008 2.63105,-3.41258 4.987285,-7.60163 l 4.284063,-7.61646 2.205437,-1.18031 2.205437,-1.18032 4.682278,1.34593 4.682279,1.34593 8.745279,5.88834 8.74528,5.88835 0.35457,1.90549 0.35456,1.90548 -10.03735,17.4519 c -5.52053,9.59855 -10.037339,17.89336 -10.037339,18.43292 0,0.53956 12.902929,23.32874 28.673179,50.64262 15.77025,27.31388 29.05463,50.66021 29.52088,51.88075 l 0.84772,2.21916 -20.23883,-0.34416 L 114.88331,832.435 95.739583,799.31 76.59585,766.185 l -1.375732,0 -1.375729,0 -19.114953,33.125 -19.114951,33.125 -19.770041,0.625 z"
         id="path3628"
         inkscape:connector-curvature="0" />
      <path
         style="fill:#fde6e8"
         d="m 15.846185,833.06 -19.5314252,0.625 0.00712,-1.875 0.00712,-1.875 28.7450452,-49.80272 28.745146,-49.80273 -0.0043,-2.07227 -0.0043,-2.07228 -9.995665,-17.28482 c -5.497616,-9.50665 -9.995665,-18.02655 -9.995665,-18.93312 l 0,-1.6483 9.40945,-5.86465 9.40945,-5.86465 4.322339,-1.19346 4.322337,-1.19345 2.218428,1.18726 2.218427,1.18727 4.284063,7.61646 c 2.356235,4.18905 4.713608,7.61646 5.238608,7.61646 0.524999,0 2.969613,-3.60328 5.432474,-8.00729 l 4.47793,-8.00728 1.932575,-0.7416 1.932576,-0.7416 3.338172,0.82937 3.338171,0.82938 10.312499,6.64142 10.3125,6.64142 0,1.4977 c 0,0.82374 -4.5,9.24308 -10,18.70966 -5.5,9.46657 -9.999999,17.90012 -9.999999,18.74121 0,0.8411 13.218749,24.4375 29.374999,52.43645 16.15625,27.99895 29.375,51.24782 29.375,51.66417 l 0,0.75699 -19.82004,0 -19.82005,0 -19.814183,-34.375 C 84.717122,779.77875 75.495516,764.32761 75.122468,764.34914 c -0.373046,0.0215 -9.46825,15.34965 -20.211562,34.0625 L 35.37761,832.435 15.846185,833.06 Z"
         id="path3626"
         inkscape:connector-curvature="0" />
      <path
         style="fill:#fde2e5"
         d="m 15.60012,833.31229 -19.2845178,0.37271 0.0018,-1.74973 0.0018,-1.74973 L 25.29144,780.06027 54.263677,729.935 54.119137,728.06 c -0.0795,-1.03125 -4.700181,-9.79073 -10.268188,-19.46552 L 33.7273,691.00396 l 0.717525,-1.78448 0.717525,-1.78448 9.640926,-5.77481 c 5.302509,-3.17615 11.143103,-6.12877 12.979096,-6.56139 l 3.338172,-0.78657 1.991661,0.76427 1.991661,0.76427 4.46525,7.98462 4.46525,7.98461 1.110571,0 1.110571,0 4.673279,-8.12533 4.673278,-8.12533 2.141814,-0.67978 2.141812,-0.67979 4.154255,1.73678 c 2.28484,0.95523 8.232384,4.35134 13.216754,7.54692 l 9.0625,5.81014 0,1.34478 c 0,0.73963 -4.5,9.10779 -10,18.59591 -5.5,9.48812 -9.999999,18.05663 -9.999999,19.04114 l 0,1.79001 28.749999,49.78825 c 15.8125,27.38352 28.75,50.5573 28.75,51.49727 l 0,1.70903 -19.11576,0 -19.11578,0 -19.814185,-34.375 C 84.87567,779.77875 75.618391,764.31821 75.201742,764.32824 c -0.416647,0.01 -9.658442,15.45168 -20.537322,34.31478 l -19.779783,34.29657 -19.284517,0.3727 z"
         id="path3624"
         inkscape:connector-curvature="0" />
      <path
         style="fill:#fddde0"
         d="m 15.571953,833.31257 -19.2563508,0.37243 0.00175,-1.62521 c 0.00104,-0.89386 12.5673088,-23.39386 27.9250938,-50 15.357784,-26.60614 28.593909,-49.6359 29.413611,-51.17726 l 1.490368,-2.80247 -10.779924,-18.6912 -10.779924,-18.6912 0.871868,-1.41071 c 0.479527,-0.77589 4.871891,-3.97466 9.760808,-7.10838 4.888918,-3.13371 10.582897,-6.18349 12.653285,-6.77727 l 3.764343,-1.07959 2.142634,0.68004 2.142633,0.68005 4.509703,8.0641 4.509702,8.0641 1.128944,0 1.128944,0 4.572137,-7.8125 c 2.514675,-4.29688 5.208823,-8.21097 5.986995,-8.69799 l 1.414859,-0.88549 3.135384,0.735 c 1.724462,0.40425 7.837235,3.58813 13.583944,7.07531 5.7467,3.48717 10.69098,6.97206 10.98728,7.74421 l 0.53872,1.4039 -10.04978,17.54555 -10.049779,17.54554 0,1.89523 0,1.89523 28.749999,49.81656 c 15.8125,27.39911 28.75,50.53046 28.75,51.40301 l 0,1.58644 -19.0625,-0.007 -19.0625,-0.008 -19.804947,-34.36803 C 84.996533,779.77561 75.700454,764.31 75.231299,764.31 c -0.469154,0 -9.751754,15.44178 -20.628001,34.31507 l -19.774993,34.31508 -19.256352,0.37242 z"
         id="path3622"
         inkscape:connector-curvature="0" />
      <path
         style="fill:#fdd9dd"
         d="m 15.469912,833.31359 -19.1543098,0.37141 0.00175,-1.49403 c 0.00104,-0.82172 12.3283725,-22.83403 27.3941238,-48.91626 15.065752,-26.08223 28.318186,-49.21274 29.449854,-51.40114 l 2.057577,-3.97892 -10.810727,-18.71815 -10.810728,-18.71815 1.366079,-1.64603 c 0.751344,-0.90531 5.493574,-4.19322 10.538287,-7.30645 l 9.172208,-5.66044 3.792948,-0.83307 3.792947,-0.83307 1.934623,1.93462 c 1.064041,1.06405 3.699361,5.01907 5.856264,8.78894 2.156904,3.76988 4.347187,7.11732 4.867293,7.43876 l 0.945649,0.58445 4.789508,-8.37053 c 2.634229,-4.60379 5.403908,-8.769 6.15484,-9.25602 l 1.365334,-0.88549 3.135384,0.7358 c 1.724463,0.40468 7.769156,3.614 13.432654,7.13181 5.66349,3.51781 10.53366,7.01202 10.82257,7.76492 l 0.5253,1.3689 -10.45964,18.52324 c -5.752803,10.18778 -10.274398,18.85467 -10.04799,19.25977 0.226407,0.4051 13.22243,22.92383 28.88004,50.04164 15.65761,27.1178 28.73403,50.32092 29.0587,51.5625 l 0.59033,2.2574 -18.86698,0 -18.86696,0 -2.21633,-3.38155 C 112.94154,827.8186 104.01078,812.51787 94.314373,795.67684 84.617968,778.83581 76.137946,764.87458 75.46988,764.65189 l -1.214665,-0.40489 -19.815496,34.34759 -19.815497,34.34758 -19.15431,0.37142 z"
         id="path3620"
         inkscape:connector-curvature="0" />
      <path
         style="fill:#fdd5d9"
         d="m 15.402324,833.31426 -19.0867218,0.37074 0.00175,-1.35751 c 0.00104,-0.74664 13.2205988,-24.26963 29.3768488,-52.27331 16.15625,-28.00368 29.375,-51.31217 29.375,-51.79665 0,-0.48448 -4.5,-8.65985 -10,-18.16749 l -10,-17.28662 0,-2.2466 0,-2.24661 9.824086,-6.23715 9.824086,-6.23715 3.771274,-0.82831 3.771274,-0.82831 1.950726,1.95073 c 1.0729,1.0729 3.803577,5.32106 6.068171,9.44035 2.264594,4.1193 4.501693,7.48963 4.971332,7.48963 0.469637,0 2.850545,-3.57036 5.290903,-7.93413 2.44036,-4.36377 5.194178,-8.56251 6.119595,-9.33054 l 1.682577,-1.39642 3.150805,0.89305 c 1.732942,0.49117 7.746287,3.70427 13.36299,7.14023 l 10.21218,6.24718 0,2.3526 0,2.3526 -10.0616,17.3574 -10.061608,17.3574 0.501066,0.91782 c 0.275588,0.50479 13.522052,23.51681 29.436602,51.13782 15.91455,27.621 28.93554,50.83878 28.93554,51.59505 l 0,1.37505 -19.04852,-0.34505 -19.04854,-0.34506 -19.475903,-33.67481 -19.475904,-33.67481 -1.315211,-0.43841 -1.315211,-0.4384 -19.825434,34.36747 -19.825432,34.36747 -19.086721,0.37075 z"
         id="path3618"
         inkscape:connector-curvature="0" />
      <path
         style="fill:#fdd1d5"
         d="m 15.315717,833.30457 -19.1284848,0.38043 0.5637225,-2.14835 c 0.3100463,-1.18159 13.5584893,-24.63286 29.4409833,-52.11394 15.882494,-27.48108 28.877263,-50.46351 28.877263,-51.07207 0,-0.60856 -4.5,-8.93061 -10,-18.49344 l -10,-17.38698 0,-2.07573 0,-2.07573 9.136961,-5.69481 c 5.025328,-3.13215 10.724624,-6.29845 12.665102,-7.03622 l 3.528142,-1.3414 2.022397,0.64827 2.022398,0.64826 4.919899,8.75857 c 2.705945,4.81721 5.336537,8.75857 5.845762,8.75857 0.509224,0 2.741936,-3.23438 4.961582,-7.1875 2.219646,-3.95313 4.871125,-8.16278 5.892176,-9.35478 l 1.856457,-2.16729 3.262063,0.81028 3.262061,0.81027 10.312499,6.64142 10.3125,6.64142 0,1.97153 0,1.97152 -10.08407,17.35665 -10.08407,17.35666 1.512402,2.88741 c 0.83182,1.58807 14.088398,24.69324 29.459078,51.34481 15.37066,26.65157 27.94666,49.0256 27.94666,49.72006 l 0,1.26265 -18.9968,-0.34505 -18.9968,-0.34506 -20.061572,-34.75556 -20.061577,-34.75556 -1.879125,2.36115 c -1.033519,1.29864 -10.316625,17.0487 -20.629125,35.00014 l -18.75,32.63898 -19.128484,0.38042 z"
         id="path3616"
         inkscape:connector-curvature="0" />
      <path
         style="fill:#fdcdd2"
         d="m 15.379411,833.06 -19.0647912,0.625 0.00225,-1.14833 c 0.0013,-0.63158 13.2210813,-24.05656 29.3773312,-52.05551 16.15625,-27.99895 29.375,-51.46974 29.375,-52.15731 0,-0.68757 -4.5,-9.10651 -10,-18.70875 l -10,-17.45863 0,-1.91886 0,-1.91885 9.288441,-5.78923 c 5.108643,-3.18408 11.026644,-6.39517 13.151113,-7.13576 l 3.862671,-1.34654 1.793164,1.48819 c 0.986238,0.81851 3.907737,5.10301 6.49222,9.52111 l 4.699057,8.03291 0.956553,-0.32722 c 0.526104,-0.17997 3.389731,-4.26472 6.363616,-9.07722 l 5.407062,-8.75 3.48002,0.37736 3.48002,0.37737 10.513032,6.78205 10.51303,6.78204 0,1.78899 c 0,0.98395 -4.24641,9.17893 -9.43648,18.21107 -5.19006,9.03214 -9.715164,17.14832 -10.055778,18.03595 l -0.619299,1.61386 29.430787,50.92157 c 16.18692,28.00686 29.43077,51.45669 29.43077,52.11071 l 0,1.18914 -18.91866,-0.34505 L 115.98189,832.435 96.117768,798.06 C 85.192503,779.15375 75.846523,763.55532 75.348926,763.39682 l -0.904725,-0.28818 -20,34.66318 -20,34.66318 -19.06479,0.625 z"
         id="path3614"
         inkscape:connector-curvature="0" />
      <path
         style="fill:#fcc5ca"
         d="m 15.471474,833.06 -18.8931792,0.625 0.36864,-1.875 c 0.2027524,-1.03125 12.8907187,-23.53125 28.1954812,-50 15.304762,-26.46875 28.382924,-49.56663 29.06258,-51.32862 l 1.235739,-3.20362 -10.185766,-17.57159 C 39.652796,700.04179 35.07013,691.35842 35.071266,690.40979 l 0.0021,-1.72479 10.310436,-6.41776 c 5.670739,-3.52978 11.603053,-6.81062 13.18292,-7.29078 l 2.872485,-0.87301 1.773982,1.47228 c 0.97569,0.80975 3.788727,5.07497 6.251192,9.47827 l 4.477208,8.006 1.133687,0 1.133686,0 5.025535,-8.6049 5.025534,-8.60491 1.839325,-0.70581 1.839323,-0.70582 5.377779,2.86747 c 2.957779,1.57711 8.612162,4.94047 12.565282,7.47413 l 7.1875,4.60666 0,1.43929 c 0,0.7916 -4.5,9.39061 -10,19.10889 -5.500003,9.71828 -10.000003,18.06498 -10.000003,18.54821 0,0.48323 12.902933,23.22632 28.673183,50.5402 15.77025,27.31388 29.05493,50.66096 29.52152,51.88244 l 0.84836,2.22085 -18.99438,-0.34585 L 116.12349,832.435 96.284225,798.08096 C 85.372629,779.18624 75.986282,763.57403 75.425676,763.38716 l -1.019284,-0.33976 -20.02087,34.6938 -20.020871,34.6938 -18.893177,0.625 z"
         id="path3612"
         inkscape:connector-curvature="0" />
      <path
         style="fill:#fcbcc2"
         d="m 15.330177,833.06 -18.7888273,0.625 1.5726163,-3.75729 c 0.8649387,-2.06651 14.033705,-25.30884 29.263925,-51.64963 l 27.69131,-47.89234 0,-1.96111 0,-1.9611 L 44.963046,708.82427 34.85689,691.185 l 1.136951,-1.80693 c 0.625322,-0.99381 5.400221,-4.47966 10.610886,-7.74633 l 9.473936,-5.93941 3.500111,-0.37866 3.500108,-0.37867 5.297474,8.75 5.297472,8.75 1.601845,0 1.601845,0 4.658947,-8.01298 c 2.56242,-4.40713 5.338913,-8.43321 6.169986,-8.94685 l 1.51104,-0.93387 1.988355,0.68718 c 1.093595,0.37795 6.91023,3.7512 12.925854,7.49611 l 10.9375,6.80892 0,1.35786 c 0,0.74682 -4.5,9.10323 -10,18.56981 -5.499999,9.46657 -9.989653,17.94587 -9.977009,18.84288 0.01265,0.89702 13.182219,24.40484 29.265719,52.23961 l 29.24274,50.60868 -0.5895,0.95382 -0.58949,0.95383 -17.8632,0 -17.8632,0 -20.018754,-34.6875 -20.018757,-34.6875 -1.429417,0 -1.429416,0 -19.839956,34.375 -19.839956,34.375 -18.788827,0.625 z"
         id="path3610"
         inkscape:connector-curvature="0" />
      <path
         style="fill:#fcb4ba"
         d="m 15.27397,833.06 -18.660589,0.625 0.990175,-2.59736 c 0.5445962,-1.42855 13.801272,-24.7723 29.45928,-51.875 L 55.53194,729.935 55.400365,728.06 c -0.07237,-1.03125 -4.734498,-9.85047 -10.360292,-19.59826 l -10.228716,-17.72327 0.808935,-1.30888 c 0.444914,-0.71989 5.401288,-4.13504 11.014164,-7.58924 l 10.20523,-6.28035 3.404486,0 3.404486,0 5.333975,9.375 c 2.933688,5.15625 5.746188,9.375 6.25,9.375 0.503814,0 3.316314,-4.21875 6.25,-9.375 l 5.333977,-9.375 2.86173,0 2.861731,0 11.264569,7.00107 11.26456,7.00108 0,1.19236 c 0,0.6558 -4.5,8.93774 -10,18.40431 l -9.999999,17.21195 0,1.90862 0,1.90862 28.749999,49.77409 c 15.8125,27.37575 28.75,50.52195 28.75,51.43599 l 0,1.66191 -17.83504,0 -17.83505,0 -20.020974,-34.6875 -20.020982,-34.6875 -1.663422,0 -1.663421,0 -19.797876,34.375 -19.797876,34.375 -18.660589,0.625 z"
         id="path3608"
         inkscape:connector-curvature="0" />
      <path
         style="fill:#fcabb2"
         d="m 15.472418,833.06 -17.903217,0 0,-1.2301 c 0,-0.67655 12.576001,-23.03593 27.946669,-49.6875 15.370667,-26.65157 28.624784,-49.75213 29.453591,-51.33457 l 1.506921,-2.87717 -10.799183,-18.65002 -10.799184,-18.65002 0.67131,-1.08621 c 0.36922,-0.59741 5.403658,-3.9883 11.187641,-7.5353 l 10.516331,-6.44911 3.060028,0 3.060028,0 5.391428,9.423 5.391427,9.423 1.172407,-0.39081 c 0.644822,-0.21494 3.528198,-4.30813 6.407501,-9.09598 l 5.235094,-8.70517 2.238955,-0.43119 2.238955,-0.43118 8.97333,5.41666 c 4.93533,2.97917 10.26811,6.54167 11.85063,7.91667 l 2.87728,2.5 -10.03048,17.5 -10.030492,17.5 -0.01013,2.16759 -0.01006,2.1676 28.308912,49.02571 c 15.56992,26.96414 28.57302,50.03559 28.8958,51.2699 l 0.58687,2.2442 -17.56067,0 -17.56067,0 -2.37205,-3.4375 c -1.30464,-1.89063 -10.69992,-17.9279 -20.878412,-35.63839 l -18.506349,-32.20089 -1.515776,1.25798 c -0.833676,0.69189 -10.42025,16.72916 -21.303498,35.63839 L 33.375637,833.06 l -17.903219,0 z"
         id="path3606"
         inkscape:connector-curvature="0" />
      <path
         style="fill:#fca3ac"
         d="m 15.084727,833.06 -17.515526,0 0,-1.06705 c 0,-0.58688 13.21875,-23.93558 29.375,-51.886 16.15625,-27.95042 29.375,-51.249 29.375,-51.77462 0,-0.52562 -4.5,-8.73465 -10,-18.24229 l -10,-17.28662 0.0021,-2.05921 0.0021,-2.05921 10.462986,-6.5625 10.462986,-6.5625 2.466215,0 2.466215,0 1.874754,2.1875 c 1.031114,1.20312 3.706739,5.44969 5.945831,9.4368 l 4.071078,7.2493 1.390716,-0.46357 c 0.764893,-0.25496 3.682259,-4.3609 6.483034,-9.1243 l 5.09232,-8.66073 2.452367,-0.3178 2.452369,-0.3178 10.624998,6.68369 10.625,6.68369 0.40476,2.07474 0.40475,2.07474 -10.13921,17.4913 -10.139223,17.49129 1.498718,2.81808 c 0.824295,1.54994 14.064185,24.58672 29.421955,51.19286 15.35779,26.60614 27.92325,48.98095 27.92325,49.72182 l 0,1.34703 L 134.782,832.78182 116.99465,832.435 96.776978,797.47502 C 85.657261,778.24703 76.053522,762.34644 75.435335,762.14038 l -1.123976,-0.37466 -16.731688,29.08464 c -9.202429,15.99655 -18.587428,32.03776 -20.855552,35.64714 l -4.123866,6.5625 -17.515526,0 z"
         id="path3604"
         inkscape:connector-curvature="0" />
      <path
         style="fill:#fb9aa4"
         d="m 15.752291,833.06 -16.7855475,0 -0.6126537,-0.9913 -0.612655,-0.99129 L 25.932369,782.3812 C 41.437381,755.59829 54.681034,732.27875 55.362707,730.56 l 1.239407,-3.125 -10.137122,-17.5 -10.137121,-17.5 0.0066,-1.875 0.0066,-1.875 10.75345,-6.63117 10.75345,-6.63117 2.589163,0.38117 2.589149,0.38117 5.487747,9.0625 5.487746,9.0625 1.471187,-0.0237 1.471188,-0.0237 5.012475,-9.02405 5.012475,-9.02404 2.199431,-0.42357 2.199433,-0.42357 11.225595,7.08311 11.22559,7.08311 0,1.63138 c 0,0.89726 -4.52877,9.53801 -10.06395,19.20166 l -10.063946,17.57027 2.131727,4.12409 c 1.172451,2.26825 14.443969,25.44697 29.492269,51.50827 l 27.36055,47.38417 -1.09109,1.09109 -1.09108,1.09108 -16.66045,-0.35026 -16.66045,-0.35026 -20.142916,-34.90538 -20.142913,-34.90537 -1.387894,-0.46263 -1.387893,-0.46263 -17.846386,30.993 c -9.815461,17.04608 -19.169458,33.1023 -20.786611,35.68043 l -2.940277,4.6875 -16.785549,0 z"
         id="path3602"
         inkscape:connector-curvature="0" />
      <path
         style="fill:#fb929c"
         d="m 15.957965,832.78277 -17.138764,0.34778 0,-1.83814 0,-1.83812 27.701145,-47.88465 C 41.755975,755.23309 54.77707,732.24337 55.456112,730.48138 l 1.234623,-3.20362 -10.303705,-17.77505 -10.303705,-17.77505 0.63631,-1.65819 0.636309,-1.6582 10.419128,-6.45348 10.419129,-6.45348 2.410156,0.34035 2.410156,0.34034 5.139463,8.74244 5.139463,8.74243 1.825381,0.33145 1.825381,0.33144 5.335621,-9.38638 5.335621,-9.38638 1.749664,0 c 0.962315,0 6.858161,3.18684 13.101883,7.08187 l 11.35221,7.08188 0,1.45104 c 0,0.79807 -4.5,9.27518 -10,18.83801 -5.499999,9.56284 -9.999999,17.82484 -9.999999,18.36 0,0.53516 13.196289,23.83627 29.325089,51.78023 l 29.3251,50.80721 -0.64886,1.04987 -0.64887,1.04989 -16.12695,0 -16.12695,0 -1.51675,-1.62369 c -0.83421,-0.89302 -10.28533,-16.78365 -21.00249,-35.3125 L 76.912775,762.435 l -1.686619,0 -1.686618,0 -20.221405,35 -20.221403,35 -17.138765,0.34777 z"
         id="path3600"
         inkscape:connector-curvature="0" />
      <path
         style="fill:#fb8994"
         d="m 15.081435,833.06 -16.262234,0 0,-1.58644 c 0,-0.87255 12.9375,-24.0039 28.75,-51.40301 l 28.75,-49.81656 0,-1.89523 0,-1.89523 -10.049784,-17.54554 -10.049782,-17.54555 0.538728,-1.4039 c 0.2963,-0.77215 5.310124,-4.32995 11.141832,-7.90622 l 10.603102,-6.50232 1.999358,0 1.999358,0 5.767996,10 5.767995,10 1.084776,0 1.084777,0 5.327118,-9.0625 c 2.929915,-4.98438 5.90816,-9.47847 6.618322,-9.98687 l 1.291204,-0.92437 1.81325,0.66886 c 0.997288,0.36787 6.480734,3.59634 12.185439,7.17437 l 10.37219,6.50551 0.003,1.16083 c 0.001,0.63846 -4.5428,9.01466 -10.09763,18.61378 l -10.099694,17.45295 0.540774,2.06792 c 0.297425,1.13735 13.27979,24.12949 28.8497,51.09362 l 28.30847,49.02571 0,1.85509 0,1.8551 -16.15927,0 -16.15928,0 -2.27822,-2.93033 C 115.4694,828.518 106.0067,812.48545 95.694201,794.50179 l -18.75,-32.69757 -1.837225,0.32523 -1.837224,0.32524 -19.102946,33.11515 c -10.50662,18.21333 -19.939989,34.09953 -20.963041,35.30266 l -1.860095,2.1875 -16.262235,0 z"
         id="path3598"
         inkscape:connector-curvature="0" />
      <path
         style="fill:#fb808b"
         d="M 15.455472,833.04086 0.2167435,833.06 -0.55925275,831.80441 -1.335249,830.54882 27.491976,780.6131 l 28.827225,-49.93573 0,-2.41584 0,-2.41584 -10.249178,-17.76202 -10.249176,-17.76201 3.061676,-2.3242 c 1.683923,-1.27832 7.054938,-4.6146 11.935588,-7.41397 l 8.87391,-5.08977 1.75109,0.6837 1.75109,0.6837 5.382044,9.43043 5.382045,9.43042 1.492955,-0.48739 1.492956,-0.48739 4.633226,-7.93218 c 2.548274,-4.3627 5.453703,-8.75265 6.456506,-9.75546 l 1.82328,-1.82328 10.704737,6.56465 c 5.8876,3.61055 11.31794,7.3035 12.0674,8.20656 l 1.36268,1.64192 -10.08642,17.36069 -10.086409,17.36068 0,1.90862 0,1.90862 28.781229,49.82814 28.78122,49.82815 -0.617,1.60785 -0.61699,1.60785 -15.4705,0 -15.47048,0 -1.86949,-2.1875 C 116.30898,829.66937 107.1733,814.24182 97.035696,796.58904 86.89809,778.93627 77.949052,763.61864 77.148944,762.54987 l -1.454743,-1.94323 -1.371336,0.91418 c -0.754235,0.5028 -10.262134,16.38293 -21.128664,35.28918 -10.86653,18.90625 -20.374429,34.78826 -21.128664,35.29336 l -1.371336,0.91835 -15.238729,0.0191 z"
         id="path3596"
         inkscape:connector-curvature="0" />
      <path
         style="fill:#fa7885"
         d="m 15.998607,831.53277 c -9.4486735,0.19128 -17.179406,0.067 -17.179406,-0.27621 0,-0.3432 13.21875,-23.52726 29.375,-51.52015 16.15625,-27.99289 29.365485,-51.21234 29.353854,-51.59879 -0.01163,-0.38644 -4.740908,-8.80768 -10.509507,-18.71386 l -10.488362,-18.01123 0.543342,-1.36377 c 0.298838,-0.75007 5.619477,-4.40856 11.82364,-8.12998 l 11.280299,-6.76623 2.007483,2.00748 c 1.104116,1.10412 4.05755,5.55309 6.563186,9.88659 l 4.555702,7.87911 1.810182,0.32852 1.810181,0.32851 5.335621,-9.38638 5.335621,-9.38638 2.19671,0 2.196709,0 9.342668,5.75494 c 5.13847,3.16522 10.04455,6.41844 10.90241,7.22938 l 1.55972,1.47443 -9.98713,17.45813 -9.987142,17.45812 -0.01009,2.16759 -0.01009,2.1676 28.170212,48.7855 c 15.49363,26.83202 28.49757,49.63853 28.89764,50.68113 l 0.72744,1.89565 -17.16454,-0.34873 -17.16452,-0.34874 -20.221408,-35 -20.221398,-35 -1.647981,0 -1.647981,0 -20.184327,35 -20.184326,35 -17.179405,0.34777 z"
         id="path3594"
         inkscape:connector-curvature="0" />
      <path
         style="fill:#fa717e"
         d="m 15.897024,831.53277 c -9.392803,0.19128 -17.077823,0.13228 -17.077823,-0.13112 0,-0.26339 13.21875,-23.35789 29.375,-51.32111 16.15625,-27.96323 29.375,-51.2611 29.375,-51.77305 0,-0.51196 -4.5,-8.70981 -10,-18.21745 -5.5,-9.50764 -10,-18.08008 -10,-19.04986 l 0,-1.76325 9.6875,-6.24194 9.6875,-6.24194 3.037066,0.32098 3.037067,0.32097 5.137552,8.74244 5.137552,8.74243 1.866739,0.3595 1.866739,0.35951 5.356414,-9.41444 5.356414,-9.41444 1.947681,0 1.94768,0 10.467045,6.41888 10.46705,6.41889 0,1.87188 0,1.87189 -9.47098,16.32713 c -5.209043,8.97992 -9.537858,17.21488 -9.61959,18.29991 l -0.148605,1.97277 28.994585,50.22564 c 15.94703,27.6241 28.99459,50.5333 28.99459,50.90932 l 0,0.68369 -16.74971,0 -16.7497,0 -19.619055,-34.0625 C 87.410258,779.01312 77.795395,762.86536 76.834372,761.86357 l -1.747314,-1.82143 -1.283202,1.2832 c -0.70576,0.70576 -10.181009,16.71291 -21.056106,35.57143 L 32.974846,831.185 15.897024,831.53277 Z"
         id="path3592"
         inkscape:connector-curvature="0" />
      <path
         style="fill:#fa6c7a"
         d="m 16.418294,831.53379 -16.349093,0.34877 0,-1.35699 c 0,-0.74633 12.9375,-23.79335 28.75,-51.21557 15.8125,-27.42222 28.75,-50.38863 28.75,-51.03645 0,-0.64783 -4.568571,-9.09528 -10.152379,-18.77212 l -10.15238,-17.59426 0.634785,-1.65423 0.634785,-1.65422 9.551266,-5.89436 9.551265,-5.89436 2.443208,0 2.443207,0 5.335622,9.36172 5.335621,9.36173 2.099942,0.0133 2.099944,0.0133 5.175114,-9.375 5.175114,-9.375 1.947392,0 1.947393,0 10.46299,6.5625 10.46299,6.5625 0.003,1.55849 c 0.001,0.85718 -4.53302,9.39541 -10.07588,18.97386 l -10.077943,17.41536 2.14468,4.15114 c 1.179575,2.28313 14.433403,25.41799 29.452943,51.41079 15.01911,25.99281 27.30782,47.50843 27.30782,47.8125 0,0.30407 -7.50827,0.55286 -16.68506,0.55286 l -16.68506,0 -20.502444,-35.6469 -20.502435,-35.64689 -1.855575,0.34777 -1.855576,0.34778 -20.232832,34.98662 -20.232831,34.98662 -16.349093,0.34879 z"
         id="path3590"
         inkscape:connector-curvature="0" />
      <path
         style="fill:#fa6372"
         d="m 16.172005,831.81 -16.102804,0 0,-1.15599 c 0,-0.63579 12.737244,-23.24412 28.304988,-50.24076 15.567742,-26.99664 28.556037,-50.04481 28.862878,-51.21817 L 57.794958,727.0617 47.68208,709.65546 C 42.119996,700.08203 37.569201,691.63733 37.569201,690.88945 l 0,-1.35976 10.307291,-6.35985 10.30729,-6.35984 2.083309,0 2.083307,0 5.812972,10.07798 5.812972,10.07797 1.483929,-0.48363 1.48393,-0.48364 5.600836,-9.59434 5.600836,-9.59434 1.490137,0 c 0.819576,0 6.293523,2.95312 12.16433,6.5625 l 10.67419,6.5625 0.0474,1.34542 c 0.026,0.73997 -4.4527,9.16955 -9.9527,18.73238 -5.499999,9.56284 -9.999999,17.83567 -9.999999,18.38407 0,0.5484 12.737459,23.02487 28.305459,49.94771 15.56802,26.92283 28.57112,49.96644 28.89579,51.20802 l 0.59033,2.2574 -15.57705,0 -15.57705,0 -1.86007,-2.1875 c -1.02303,-1.20313 -10.4965,-17.23438 -21.052139,-35.625 L 77.102394,760.56 l -1.954097,0.0262 -1.954096,0.0262 -20.459696,35.59884 -20.459698,35.59884 -16.102802,0 z"
         id="path3588"
         inkscape:connector-curvature="0" />
      <path
         style="fill:#fa606e"
         d="m 15.500466,831.81 -15.431265,0 0,-1.03691 c 0,-0.57029 12.9375,-23.43524 28.75,-50.81099 l 28.75,-49.77409 0,-1.90862 0,-1.90862 -10,-17.21195 c -5.5,-9.46657 -10,-17.72925 -10,-18.3615 l 0,-1.14955 10.467048,-6.41889 C 53.793126,679.6985 59.301857,676.81 60.277876,676.81 l 1.77458,0 5.651119,9.6875 5.65112,9.6875 1.772517,0 1.772518,0 5.058102,-8.41087 c 2.781958,-4.62597 5.71519,-9.06795 6.518295,-9.87106 l 1.460191,-1.46019 8.968625,5.41893 c 4.932747,2.9804 10.119647,6.35096 11.526457,7.49013 l 2.55784,2.0712 -10.21002,17.82529 c -5.615511,9.80391 -10.210019,18.4171 -10.210019,19.14042 0,0.72333 12.937499,23.6983 28.749999,51.0555 15.8125,27.35721 28.75,50.33106 28.75,51.05301 l 0,1.31264 -15.53989,0 -15.53987,0 -2.3683,-3.4375 c -1.30256,-1.89063 -10.67577,-17.92188 -20.829352,-35.625 L 77.330727,760.56 l -2.092067,0 -2.092068,0 -19.22515,33.4375 c -10.573834,18.39062 -20.072177,34.42187 -21.107431,35.625 l -1.882279,2.1875 -15.431266,0 z"
         id="path3586"
         inkscape:connector-curvature="0" />
      <path
         style="fill:#fa5b6b"
         d="m 15.475347,831.81 -15.6736185,0 0.723315,-1.88493 C 0.922866,828.88836 13.920547,806.0648 29.40878,779.20605 l 28.160421,-48.83409 -0.0043,-2.09348 -0.0043,-2.09348 -9.995665,-17.28482 c -5.497616,-9.50665 -9.994736,-17.6629 -9.9936,-18.125 0.0011,-0.4621 4.710408,-3.79331 10.46505,-7.40268 5.754642,-3.60938 11.248961,-6.5625 12.209599,-6.5625 l 1.746613,0 5.624944,9.67502 5.624943,9.67503 1.89225,0.36441 1.892251,0.36442 5.337924,-9.38194 c 2.935857,-5.16007 5.878811,-9.71623 6.539897,-10.1248 l 1.201974,-0.74286 10.655529,6.53446 c 5.86054,3.59396 10.95251,7.015 11.31549,7.60232 l 0.65997,1.06784 -10.27002,17.71693 -10.270013,17.71693 1.234623,3.20362 c 0.679042,1.76199 13.70014,24.75171 28.93576,51.08826 15.23564,26.33656 27.70115,48.43148 27.70115,49.09985 l 0,1.2152 -15.92594,-0.34984 -15.926,-0.34985 -20.02959,-34.64302 C 87.17147,777.48832 77.539482,761.28028 76.783322,760.52412 l -1.374835,-1.37483 -1.897045,1.89704 c -1.043374,1.04337 -9.919622,15.84516 -19.724996,32.89286 -9.805374,17.0477 -18.910096,32.54268 -20.232716,34.43331 l -2.404764,3.4375 -15.673619,0 z"
         id="path3584"
         inkscape:connector-curvature="0" />
      <path
         style="fill:#fa5262"
         d="M 16.728768,831.5352 1.513336,831.88539 0.92324225,830.9102 0.33314725,829.935 28.909682,780.56 l 28.576535,-49.375 0.04149,-2.71518 0.04149,-2.71519 -9.9504,-17.2165 -9.950399,-17.2165 1.268663,-1.52865 c 0.697763,-0.84075 5.17079,-3.88634 9.940056,-6.76798 4.769266,-2.88163 9.61769,-5.31823 10.774275,-5.41467 l 2.10288,-0.17533 5.719963,9.6586 5.719962,9.65861 2.099942,0.0289 2.099944,0.0289 5.158644,-9.34516 c 2.837254,-5.13984 5.70284,-9.6815 6.367967,-10.09257 l 1.209325,-0.7474 11.219591,7.07932 c 6.17078,3.89363 11.21959,7.25094 11.21959,7.4607 0,0.20976 -4.5,8.23777 -10,17.84001 l -10.000003,17.45863 0,1.93975 0,1.93974 28.082483,48.64542 c 15.44535,26.75498 28.44967,49.60236 28.89848,50.77195 l 0.81603,2.12652 -15.97658,-0.35096 L 118.41305,831.185 98.616069,796.85458 C 87.727727,777.97286 77.979378,761.68446 76.953072,760.65816 l -1.866014,-1.86602 -1.478221,1.47822 c -0.813022,0.81303 -10.520165,17.10142 -21.571429,36.19643 L 31.944201,831.185 16.728768,831.5352 Z"
         id="path3582"
         inkscape:connector-curvature="0" />
      <path
         style="fill:#fa4b5c"
         d="m 16.52461,830.56 -15.4728815,0 0.67881,-1.76895 c 0.3733438,-0.97293 13.3710245,-23.73964 28.8837355,-50.59269 15.51271,-26.85307 28.204927,-49.26809 28.204927,-49.81117 0,-0.54308 -4.5,-8.81155 -10,-18.37439 -5.5,-9.56283 -10,-18.05142 -10,-18.86352 l 0,-1.47656 9.0625,-5.57087 c 4.984375,-3.06397 10.042835,-5.93888 11.241022,-6.38868 l 2.178522,-0.81782 5.675411,9.83949 5.675411,9.83949 1.788656,0.68637 1.788655,0.68637 2.34859,-3.38104 c 1.291724,-1.85956 3.983809,-6.33358 5.982412,-9.94226 l 3.633821,-6.56123 1.875,0.0209 1.875,0.0209 9.687499,6.21127 9.6875,6.21127 0,1.36815 c 0,0.75247 -4.21875,8.62562 -9.375,17.49588 l -9.374999,16.12774 0,2.72248 0,2.72247 27.074829,46.98568 c 14.89115,25.84212 27.89333,48.2513 28.89376,49.79817 l 1.81894,2.8125 -16.08127,-0.0369 -16.08126,-0.0369 -20.425043,-35.5881 -20.425044,-35.5881 -2.123502,0 -2.123501,0 -20.549809,35.625 -20.549809,35.625 -15.472882,0 z"
         id="path3580"
         inkscape:connector-curvature="0" />
      <path
         style="fill:#fa4253"
         d="m 16.531147,830.28639 -15.316371,0.3514 1.8034062,-3.4764 C 4.0100547,825.24937 16.971051,802.64401 31.820395,776.92726 l 26.998806,-46.75774 0,-1.89937 0,-1.89938 -10,-17.21195 c -5.5,-9.46657 -9.985414,-17.66462 -9.967585,-18.21789 0.01783,-0.55326 4.535311,-3.73128 10.038851,-7.06226 l 10.006436,-6.05632 1.626669,0.62421 1.62667,0.62421 5.432403,9.49461 5.432404,9.49462 2.167675,0 2.167674,0 5.825067,-10.09895 5.825066,-10.09894 1.99127,0.76412 c 1.095199,0.42027 6.147435,3.35455 11.227189,6.52062 l 9.23592,5.7565 -0.69215,1.80372 c -0.38068,0.99205 -4.91122,9.06175 -10.06785,17.93268 -5.156642,8.87092 -9.375709,16.785 -9.375709,17.58683 0,0.80183 12.937499,23.86197 28.749999,51.24474 15.8125,27.38278 28.75,50.09709 28.75,50.47624 l 0,0.68939 -15.1469,-0.35098 L 118.5254,829.935 98.984803,796.04352 C 88.237472,777.4032 78.678205,761.23856 77.741986,760.12209 l -1.702214,-2.02994 -1.984374,1.11051 -1.984375,1.11051 -20.111752,34.81092 -20.111753,34.81091 -15.316371,0.35139 z"
         id="path3578"
         inkscape:connector-curvature="0" />
      <path
         style="fill:#fa3e50"
         d="m 16.148673,830.56 -14.5833033,0 28.6269163,-49.561 28.626915,-49.56099 0,-3.15354 0,-3.15354 -8.354365,-14.47297 C 45.869935,702.69783 41.359307,695.00189 40.44122,693.55587 l -1.669251,-2.62914 10.778321,-6.60977 10.778321,-6.60977 1.132535,1.73891 c 0.622895,0.95639 3.119271,5.24731 5.547503,9.53536 l 4.414966,7.79646 2.202645,1.17882 2.202646,1.17882 1.299594,-0.85028 c 0.714776,-0.46765 3.804899,-5.19464 6.86694,-10.50441 l 5.567346,-9.65413 10.253207,6.32647 10.253207,6.32648 0,1.24176 c 0,0.68297 -4.21875,8.49925 -9.375,17.36951 l -9.374999,16.12774 0,2.74523 0,2.74523 27.090409,46.96292 c 14.89973,25.82961 27.90192,48.22854 28.89377,49.77542 l 1.80335,2.8125 -14.83127,-0.025 -14.83126,-0.0251 -20.625574,-35.91246 -20.625575,-35.91246 -2.977078,0 -2.977077,0 -20.753459,35.9375 -20.75346,35.9375 -14.583304,0 z"
         id="path3576"
         inkscape:connector-curvature="0" />
      <path
         style="fill:#fa3d4f"
         d="m 16.567945,830.28844 c -7.699309,0.19438 -13.998744,0.14935 -13.998744,-0.1001 0,-0.24947 12.9375,-22.87567 28.75,-50.28045 l 28.75,-49.8269 0,-1.85511 0,-1.85511 -10,-17.21195 c -5.5,-9.46657 -10,-17.4677 -10,-17.78028 0,-0.31258 4.496313,-3.42296 9.991806,-6.91196 l 9.991807,-6.34363 1.730766,2.78102 c 0.951921,1.52957 3.664246,6.15603 6.027387,10.28103 l 4.296623,7.5 3.009964,0 3.009965,0 4.77936,-8.125 c 2.628647,-4.46875 5.254136,-8.92975 5.834418,-9.91334 l 1.055059,-1.78834 8.573923,5.22565 c 4.715661,2.87412 9.365351,5.73539 10.332651,6.35839 l 1.75873,1.13274 -9.74235,16.67995 -9.742353,16.67995 -0.03721,3.13942 -0.03721,3.13941 28.333323,49.06799 c 15.58334,26.98739 28.33334,49.3587 28.33334,49.71403 l 0,0.64602 -13.89166,-0.35343 -13.89166,-0.35344 -20.683747,-35.88067 -20.683746,-35.88067 -1.67459,-0.6426 c -0.921025,-0.35343 -2.377716,-0.36515 -3.237091,-0.0261 l -1.5625,0.61656 -20.688756,35.90671 -20.688755,35.90672 -13.998745,0.35344 z"
         id="path3574"
         inkscape:connector-curvature="0" />
    </g>
    <path
       style="fill:#000000"
       d=""
       id="path3570"
       inkscape:connector-curvature="0" />
  </g>
</svg>
